<svg width="20" height="20" viewBox="0 0 20 20" fill="none" xmlns="http://www.w3.org/2000/svg">
<path d="M10.0001 0.90918C7.58903 0.90918 5.27672 1.86697 3.57185 3.57185C1.86697 5.27672 0.90918 7.58903 0.90918 10.0001C0.90918 12.4111 1.86697 14.7235 3.57185 16.4283C5.27672 18.1332 7.58903 19.091 10.0001 19.091C12.4111 19.091 14.7235 18.1332 16.4283 16.4283C18.1332 14.7235 19.091 12.4111 19.091 10.0001C19.091 7.58903 18.1332 5.27672 16.4283 3.57185C14.7235 1.86697 12.4111 0.90918 10.0001 0.90918ZM5.70321 9.46742C5.36941 9.13361 5.36941 8.59384 5.70321 8.26358C6.03702 7.93333 6.57679 7.92978 6.90705 8.26358L9.99654 11.3531L13.086 8.26358C13.4198 7.92978 13.9596 7.92978 14.2899 8.26358C14.6201 8.59739 14.6237 9.13716 14.2899 9.46742L10.6038 13.1606C10.27 13.4944 9.7302 13.4944 9.39995 13.1606L5.70321 9.46742Z" fill="white"/>
</svg>
