<svg width="16" height="16" viewBox="0 0 16 16" fill="none" xmlns="http://www.w3.org/2000/svg">
<path d="M8 16C10.1217 16 12.1566 15.1571 13.6569 13.6569C15.1571 12.1566 16 10.1217 16 8C16 5.87827 15.1571 3.84344 13.6569 2.34315C12.1566 0.842855 10.1217 0 8 0C5.87827 0 3.84344 0.842855 2.34315 2.34315C0.842855 3.84344 0 5.87827 0 8C0 10.1217 0.842855 12.1566 2.34315 13.6569C3.84344 15.1571 5.87827 16 8 16ZM11.7812 8.46875C12.075 8.7625 12.075 9.2375 11.7812 9.52812C11.4875 9.81875 11.0125 9.82187 10.7219 9.52812L8.00313 6.80937L5.28438 9.52812C4.99063 9.82187 4.51562 9.82187 4.225 9.52812C3.93437 9.23438 3.93125 8.75937 4.225 8.46875L7.46875 5.21875C7.7625 4.925 8.2375 4.925 8.52812 5.21875L11.7812 8.46875Z" fill="#111519"/>
</svg>
